<svg width="646" height="761" viewBox="0 0 646 761" fill="none" xmlns="http://www.w3.org/2000/svg">
<path opacity="0.24" d="M183.078 669.613C136.629 674.283 88.7545 679.419 47.8811 702.264C42.4104 705.328 36.8558 708.942 33.8375 714.458C27.7798 725.553 34.6549 740.177 45.3239 746.855C55.9929 753.533 69.1563 754.294 81.7117 754.844C305.279 764.586 529.181 760.761 752.937 756.957C817.915 755.858 883.92 754.59 946.195 735.718C957.388 732.337 969.692 727.265 973.905 716.212C979.417 701.757 966.841 685.737 952.169 681.236C937.496 676.735 921.838 680.095 906.663 682.06C853.968 688.886 800.811 678.446 748.346 670.099C645.639 653.784 539.075 640.512 435.047 638.039C399.581 637.215 369.293 649.515 334.582 654.376C284.465 661.434 233.467 664.541 183.078 669.613Z" fill="#505F98"/>
<path d="M0.368814 236.326L116.198 0.408372L185.185 34.1898L69.3551 270.108L0.368814 236.326Z" fill="white"/>
<path d="M27.2139 229.055L41.3273 200.22L87.7915 222.903L73.678 251.738L27.2139 229.055Z" fill="#505F98"/>
<path d="M27.2139 229.055L41.3273 200.22L87.7915 222.903L73.678 251.738L27.2139 229.055Z" fill="url(#paint0_linear_108_1329)"/>
<path d="M41.3295 200.445L55.4429 171.61L101.907 194.293L87.7936 223.128L41.3295 200.445Z" fill="#505F98"/>
<path d="M41.3295 200.445L55.4429 171.61L101.907 194.293L87.7936 223.128L41.3295 200.445Z" fill="url(#paint1_linear_108_1329)"/>
<path d="M55.4261 171.826L69.5396 142.991L116.004 165.674L101.89 194.509L55.4261 171.826Z" fill="#505F98"/>
<path d="M55.4261 171.826L69.5396 142.991L116.004 165.674L101.89 194.509L55.4261 171.826Z" fill="url(#paint2_linear_108_1329)"/>
<path d="M69.5625 143.237L83.676 114.402L130.14 137.085L116.027 165.92L69.5625 143.237Z" fill="#505F98"/>
<path d="M69.5625 143.237L83.676 114.402L130.14 137.085L116.027 165.92L69.5625 143.237Z" fill="url(#paint3_linear_108_1329)"/>
<path d="M83.6685 114.599L97.7819 85.7644L144.246 108.447L130.133 137.282L83.6685 114.599Z" fill="#505F98"/>
<path d="M97.7839 86.0103L111.897 57.1754L158.362 79.8578L144.248 108.693L97.7839 86.0103Z" fill="#505F98"/>
<path d="M111.881 57.3912L125.994 28.5563L172.458 51.2387L158.345 80.0736L111.881 57.3912Z" fill="#505F98"/>
<path d="M96.1959 89.5983L110.309 60.7633L156.774 83.4457L142.66 112.281L96.1959 89.5983Z" fill="url(#paint4_linear_108_1329)"/>
<path d="M110.321 60.9695L124.434 32.1346L170.898 54.817L156.785 83.6519L110.321 60.9695Z" fill="url(#paint5_linear_108_1329)"/>
<rect x="410.837" y="554" width="98.0679" height="82" fill="#505F98"/>
<rect x="410.837" y="554" width="98.0679" height="82" fill="url(#paint6_linear_108_1329)"/>
<rect x="202.693" y="212" width="518.359" height="355" rx="9.37" fill="#505F98"/>
<path opacity="0.65" d="M704.04 241.438V535.562C704.057 540.443 702.133 545.129 698.693 548.588C695.253 552.047 690.579 553.994 685.703 554H234.039C229.165 553.989 224.494 552.04 221.056 548.582C217.617 545.125 215.691 540.441 215.702 535.562V241.438C215.691 236.559 217.617 231.875 221.056 228.418C224.494 224.96 229.165 223.011 234.039 223H685.703C690.579 223.006 695.253 224.953 698.693 228.412C702.133 231.871 704.057 236.557 704.04 241.438Z" fill="url(#paint7_linear_108_1329)"/>
<rect x="365.806" y="626" width="206.143" height="21" fill="#505F98"/>
<rect x="410.837" y="614" width="98.0679" height="12" fill="url(#paint8_linear_108_1329)"/>
<path d="M704.04 241.513V248H215.702V241.513C215.691 236.614 217.617 231.912 221.056 228.44C224.495 224.968 229.166 223.011 234.041 223H685.701C690.578 223.006 695.252 224.961 698.692 228.434C702.133 231.907 704.057 236.613 704.04 241.513V241.513Z" fill="url(#paint9_linear_108_1329)"/>
<rect x="225.709" y="280" width="47.0326" height="227" fill="url(#paint10_linear_108_1329)"/>
<rect x="343.791" y="296" width="221.153" height="209" fill="url(#paint11_linear_108_1329)"/>
<rect x="394.826" y="394" width="7.00485" height="9" fill="url(#paint12_linear_108_1329)"/>
<rect x="394.826" y="352" width="7.00485" height="9" fill="url(#paint13_linear_108_1329)"/>
<rect x="299.76" y="394" width="7.00485" height="9" fill="url(#paint14_linear_108_1329)"/>
<rect x="299.76" y="352" width="7.00485" height="9" fill="url(#paint15_linear_108_1329)"/>
<rect x="394.826" y="307" width="7.00485" height="9" fill="url(#paint16_linear_108_1329)"/>
<rect x="300.761" y="307" width="7.00485" height="9" fill="url(#paint17_linear_108_1329)"/>
<rect x="348.794" y="307" width="7.00485" height="9" fill="url(#paint18_linear_108_1329)"/>
<rect x="348.794" y="394" width="7.00485" height="9" fill="url(#paint19_linear_108_1329)"/>
<path fill-rule="evenodd" clip-rule="evenodd" d="M312.769 392H390.823V319H312.769V392ZM382.961 384.282H320.631V326.656H382.961V384.282Z" fill="#505F98"/>
<path fill-rule="evenodd" clip-rule="evenodd" d="M312.769 392H390.823V319H312.769V392ZM382.961 384.282H320.631V326.656H382.961V384.282Z" fill="url(#paint20_linear_108_1329)"/>
<rect x="596.966" y="260" width="100.069" height="100" fill="url(#paint21_linear_108_1329)"/>
<rect x="596.966" y="370" width="100.069" height="100" fill="url(#paint22_linear_108_1329)"/>
<rect opacity="0.65" x="225.709" y="279" width="47.0326" height="13" fill="url(#paint23_linear_108_1329)"/>
<path d="M22.6729 210.827L227.801 46.2927L275.914 106.118L70.7853 270.652L22.6729 210.827Z" fill="white"/>
<path d="M51.3965 215.455L76.464 195.235L109.046 235.522L83.9789 255.742L51.3965 215.455Z" fill="#505F98"/>
<path d="M51.3965 215.455L76.464 195.235L109.046 235.522L83.9789 255.742L51.3965 215.455Z" fill="url(#paint24_linear_108_1329)"/>
<path d="M75.0144 195.689L100.047 175.56L132.481 215.79L107.449 235.919L75.0144 195.689Z" fill="#505F98"/>
<path d="M75.0144 195.689L100.047 175.56L132.481 215.79L107.449 235.919L75.0144 195.689Z" fill="url(#paint25_linear_108_1329)"/>
<path d="M99.9583 175.761L124.99 155.633L157.425 195.863L132.393 215.991L99.9583 175.761Z" fill="#505F98"/>
<path d="M99.9583 175.761L124.99 155.633L157.425 195.863L132.393 215.991L99.9583 175.761Z" fill="url(#paint26_linear_108_1329)"/>
<path d="M124.886 155.847L149.918 135.718L182.353 175.948L157.321 196.077L124.886 155.847Z" fill="#505F98"/>
<path d="M124.886 155.847L149.918 135.718L182.353 175.948L157.321 196.077L124.886 155.847Z" fill="url(#paint27_linear_108_1329)"/>
<path d="M151.006 135.389L176.073 115.169L208.656 155.456L183.588 175.677L151.006 135.389Z" fill="#505F98"/>
<path d="M176.086 114.99L201.154 94.7701L233.736 135.057L208.668 155.277L176.086 114.99Z" fill="#505F98"/>
<path d="M199.693 96.0512L224.726 75.9226L257.161 116.153L232.128 136.281L199.693 96.0512Z" fill="#505F98"/>
<path d="M229.712 139.218L208.613 156L176.675 115.782L197.774 99L229.712 139.218V139.218Z" fill="url(#paint28_linear_108_1329)"/>
<path d="M196.736 98.6476L221.768 78.519L254.203 118.749L229.171 138.878L196.736 98.6476Z" fill="url(#paint29_linear_108_1329)"/>
<path d="M145.653 220.15V343H124.639V220.15C124.639 215.61 127.457 211.57 131.657 210.089V197.825C131.657 195.712 133.333 194 135.4 194C137.468 194 139.144 195.712 139.144 197.825V210.297C143.063 211.935 145.632 215.823 145.653 220.15V220.15Z" fill="#505F98"/>
<path d="M145.653 220.15V343H124.639V220.15C124.639 215.61 127.457 211.57 131.657 210.089V197.825C131.657 195.712 133.333 194 135.4 194C137.468 194 139.144 195.712 139.144 197.825V210.297C143.063 211.935 145.632 215.823 145.653 220.15V220.15Z" fill="url(#paint30_linear_108_1329)"/>
<rect x="111.63" y="298" width="50.0346" height="9" rx="2.245" fill="#505F98"/>
<path d="M136.336 380V380C127.763 380 120.636 367.185 120.636 358.634V302H151.658V358.634C151.658 367.185 144.887 380 136.336 380Z" fill="#505F98"/>
<rect x="111.63" y="298" width="50.0346" height="9" rx="2.245" fill="url(#paint31_linear_108_1329)"/>
<path d="M136.336 380V380C127.763 380 120.636 367.366 120.636 358.937V307H151.658V358.937C151.658 367.366 144.887 380 136.336 380Z" fill="url(#paint32_linear_108_1329)"/>
<path d="M336.428 440C335.754 436.436 335.329 431.39 336.623 431.043C339.351 430.275 336.428 440 336.428 440Z" fill="#28353D"/>
<path d="M479.687 635.507C479.201 648.102 469.439 694.388 469.122 707.004C469.122 711.202 470.242 717.647 468.889 721.698C466.1 730.284 456.211 729.108 454.922 724.049L454.436 721.53C449.85 697.012 457.225 669.198 454.436 637.186C452.766 617.643 444.99 579.963 439.898 579.711C437.214 579.711 375.957 708.851 370.632 716.807C368.011 720.817 360.637 720.187 357.066 723.42C353.495 726.652 386.818 625.515 400.785 572.07C404.043 561.039 406.167 549.709 407.124 538.252C407.505 531.64 405.37 529.415 411.477 527.463C415.703 526.119 421.557 526.497 426.078 526.182C431.002 525.804 476.792 525.72 476.792 528.953C476.348 546.502 480.87 606.412 479.687 635.507Z" fill="#606161"/>
<path d="M479.687 635.507C479.201 648.102 469.439 694.388 469.122 707.004C469.122 711.202 470.242 717.647 468.889 721.698C466.1 730.284 456.211 729.108 454.922 724.049L454.436 721.53C449.85 697.012 457.225 669.198 454.436 637.186C452.766 617.643 444.99 579.963 439.898 579.711C437.214 579.711 375.957 708.851 370.632 716.807C368.011 720.817 360.637 720.187 357.066 723.42C353.495 726.652 386.818 625.515 400.785 572.07C404.043 561.039 406.167 549.709 407.124 538.252C407.505 531.64 405.37 529.415 411.477 527.463C415.703 526.119 421.557 526.497 426.078 526.182C431.002 525.804 476.792 525.72 476.792 528.953C476.348 546.502 480.87 606.412 479.687 635.507Z" fill="url(#paint33_linear_108_1329)"/>
<path d="M425.614 367.148C425.229 363.163 423.346 361 421.506 361C419.667 361 418.533 363.12 418.918 367.148C419.005 370.122 421.249 372.597 424.223 373C426.085 373 426.02 371.134 425.614 367.148Z" fill="#FFCD9C"/>
<path d="M458.008 367.159C458.258 363.166 460.095 361 461.994 361C463.893 361 465.124 363.124 464.832 367.159C464.805 370.173 462.56 372.687 459.615 373C457.736 373 457.715 371.152 458.008 367.159Z" fill="#FFCD9C"/>
<path d="M461.732 384.672C461.473 386.777 452.558 396 442.413 396C432.267 396 423.892 387.577 422.122 384.208C420.352 380.839 427.475 337.505 431.598 333.884C435.721 330.262 452.429 332.641 453.832 334.558C457.199 339.085 462.833 376.27 461.732 384.672Z" fill="#F4AD7D"/>
<path d="M457.538 351.977C456.159 352.639 450.743 338.842 449.607 336.525C448.472 334.208 448.654 331.829 450.033 331.167C451.413 330.505 453.441 331.871 454.577 334.167C455.713 336.463 458.897 351.336 457.538 351.977Z" fill="#FFCD9C"/>
<path d="M427.168 350.987C425.737 350.501 429.525 336.179 430.351 333.703C431.177 331.228 433.031 329.599 434.381 330.086C435.731 330.573 436.295 332.984 435.469 335.481C434.643 337.977 428.518 351.474 427.168 350.987Z" fill="#FFCD9C"/>
<path d="M432.845 383H454.608L457.87 403.622C446.014 410.005 439.101 409.301 429.85 402.214L432.845 383Z" fill="#F4AD7D"/>
<path d="M441.859 387.13C441.859 386.75 442.764 386.43 443.86 386.43C444.956 386.43 445.861 386.75 445.861 387.13C445.861 387.51 444.98 387.57 443.86 387.57C442.74 387.57 441.859 387.53 441.859 387.13Z" fill="#F4AD7D"/>
<path d="M462.892 377.808C463.716 372.894 465.06 337.708 461.764 333.051C458.469 328.394 438.741 325.381 435.749 326.108C429.05 327.731 430.221 332.517 430.221 332.517C428.23 332.547 426.28 333.084 424.563 334.076C422.265 335.615 417.43 357.79 421.289 374.56C423.023 382.102 429.852 388.66 441.646 388.981C456.171 389.365 461.895 383.896 462.892 377.808Z" fill="#606161"/>
<path d="M435.831 327.762C437.39 326.448 439.41 325.828 441.43 326.041C447.563 326.008 453.647 327.14 459.365 329.376C462.535 330.488 465.414 332.311 467.785 334.708C470.172 337.173 471.271 340.627 470.753 344.034C469.7 349.047 464.438 352.148 462.712 356.97C461.322 360.837 462.312 364.575 462.354 368.463C462.382 371.606 462.156 374.746 461.68 377.852C460.712 383.906 455.176 389.344 440.967 388.983C429.516 388.664 422.885 382.143 421.201 374.644C418.921 362.198 419.519 349.389 422.948 337.215C429.12 338.648 435.434 339.361 441.767 339.339C448.482 339.395 455.178 338.611 461.701 337.002C462.817 343.503 462.796 356.524 462.438 366.253" fill="#606161"/>
<path d="M400.702 399.954C397.268 400.241 393.96 401.384 391.077 403.28C386.139 407.171 385.764 414.43 385.848 420.748C385.678 429.501 386.285 438.252 387.66 446.897C389.139 454.826 391.827 462.441 394.035 470.202C397.516 482.831 399.344 495.862 399.473 508.966C399.473 516.162 399.348 524.07 403.827 529.697C408.723 535.806 417.39 536.998 425.182 537.438C436.245 538.086 447.349 538.17 458.412 537.709C465.829 537.375 473.725 536.643 479.6 532.082C484.288 528.442 495.267 405.288 486.746 402.171C478.225 399.054 469.058 398.259 460.016 397.506C439.745 395.791 420.661 394.431 400.702 399.954Z" fill="#505F98"/>
<path d="M464.521 655.291C463.435 669.255 460.843 720 460.843 720L454.238 719.77C449.702 695.39 456.997 667.732 454.238 635.899C452.586 616.465 444.895 578.996 439.857 578.746C441.362 566.221 449.827 568.1 449.827 568.1C455.984 577.294 461.294 587.026 465.692 597.178C470.729 610.37 465.629 641.263 464.521 655.291Z" fill="url(#paint34_linear_108_1329)"/>
<path d="M340.164 721.024C339.133 721.786 338.35 722.83 337.913 724.025C337.678 725.009 337.773 726.04 338.184 726.965C339.35 729.326 341.56 731.019 344.168 731.55C346.744 732.04 349.383 732.131 351.987 731.818L360.328 731.262C362.45 731.212 364.555 730.873 366.583 730.255C368.614 729.627 370.289 728.198 371.212 726.308C371.704 724.916 371.895 723.438 371.775 721.969C371.775 715.164 369.357 709.634 361.808 711.299C353.902 712.765 346.474 716.102 340.164 721.024V721.024Z" fill="#505F98"/>
<path d="M478.703 724.063C479.65 724.759 480.369 725.709 480.77 726.797C480.984 727.682 480.9 728.611 480.53 729.446C479.468 731.584 477.438 733.114 475.047 733.579C472.69 734.035 470.273 734.121 467.888 733.834L460.316 733.325C458.39 733.284 456.478 732.985 454.636 732.435C452.779 731.864 451.25 730.566 450.415 728.853C449.967 727.595 449.789 726.26 449.893 724.932C449.893 718.785 452.069 713.72 459.01 715.288C466.206 716.619 472.964 719.63 478.703 724.063V724.063Z" fill="#505F98"/>
<path d="M487.891 402C487.891 402 520.606 421.163 530.432 445.389C540.257 469.614 498.252 528 498.252 528L489.263 518.814C489.263 518.814 511.188 474.759 507.799 463.74C504.409 452.721 491.13 442.452 491.13 442.452L487.891 402Z" fill="#505F98"/>
<path d="M394.826 439.859C394.826 439.859 349.338 460.24 330.853 450.238C312.368 440.237 331.398 390 331.398 390L343.777 394.202C343.777 394.202 333.433 419.815 345.267 423.618C357.101 427.421 392.56 402.438 392.56 402.438L394.826 439.859Z" fill="#505F98"/>
<path d="M480.466 526.976C479.158 527.826 478.097 528.968 477.381 530.297C476.952 531.425 476.797 532.629 476.928 533.819C476.849 536.709 478.163 539.479 480.51 541.367C482.158 542.25 484.005 542.76 485.903 542.857C487.066 543.048 488.256 543.048 489.419 542.857C490.606 542.646 491.597 541.888 492.051 540.844C492.206 540.183 492.271 539.507 492.245 538.831C492.396 535.51 494.899 532.793 496.97 530.076C497.47 529.551 497.793 528.9 497.897 528.204C497.885 527.434 497.597 526.69 497.078 526.091C495.675 524.199 492.202 520.717 489.419 521.018C486.636 521.32 482.624 525.326 480.466 526.976Z" fill="#F4AD7D"/>
<path d="M351.585 382.435C352.178 381.611 352.582 380.679 352.772 379.698C352.923 378.683 352.386 377.687 351.431 377.211C349.915 376.647 348.114 378.13 346.62 377.504C346.114 377.235 345.69 376.846 345.389 376.375C343.625 373.945 342.613 371.093 342.467 368.143C342.553 366.571 342.405 364.995 342.028 363.463C341.583 361.886 340 360.849 338.293 361.018C336.886 361.331 336.095 362.689 335.217 363.776C334.338 364.863 332.58 366.158 331.437 367.516C329.487 370.307 328.37 373.55 328.208 376.898C327.592 381.077 327.197 385.861 330.273 388.87C332.646 391.189 339.874 393.927 343.192 392.694C346.861 391.315 349.74 385.444 351.585 382.435Z" fill="#F4AD7D"/>
<defs>
<linearGradient id="paint0_linear_108_1329" x1="151.402" y1="296.166" x2="216.156" y2="167.6" gradientUnits="userSpaceOnUse">
<stop stop-color="#010101" stop-opacity="0.01"/>
<stop offset="0.95" stop-color="#010101"/>
</linearGradient>
<linearGradient id="paint1_linear_108_1329" x1="206.563" y1="292.365" x2="299.417" y2="110.775" gradientUnits="userSpaceOnUse">
<stop stop-color="#010101" stop-opacity="0.01"/>
<stop offset="0.95" stop-color="#010101"/>
</linearGradient>
<linearGradient id="paint2_linear_108_1329" x1="326.545" y1="301.092" x2="463.899" y2="-9.05183" gradientUnits="userSpaceOnUse">
<stop stop-color="#010101" stop-opacity="0.01"/>
<stop offset="0.95" stop-color="#010101"/>
</linearGradient>
<linearGradient id="paint3_linear_108_1329" x1="454.379" y1="317.583" x2="659.309" y2="-129.821" gradientUnits="userSpaceOnUse">
<stop stop-color="#010101" stop-opacity="0.01"/>
<stop offset="0.36" stop-color="#010101" stop-opacity="0.36"/>
<stop offset="0.95" stop-color="#010101"/>
</linearGradient>
<linearGradient id="paint4_linear_108_1329" x1="305.726" y1="212.564" x2="422.886" y2="-29.0312" gradientUnits="userSpaceOnUse">
<stop stop-color="white" stop-opacity="0.01"/>
<stop offset="0.07" stop-color="white" stop-opacity="0.22"/>
<stop offset="0.16" stop-color="white" stop-opacity="0.45"/>
<stop offset="0.25" stop-color="white" stop-opacity="0.65"/>
<stop offset="0.33" stop-color="white" stop-opacity="0.8"/>
<stop offset="0.4" stop-color="white" stop-opacity="0.91"/>
<stop offset="0.46" stop-color="white" stop-opacity="0.98"/>
<stop offset="0.51" stop-color="white"/>
</linearGradient>
<linearGradient id="paint5_linear_108_1329" x1="227.65" y1="159.444" x2="291.846" y2="23.5549" gradientUnits="userSpaceOnUse">
<stop stop-color="white" stop-opacity="0.01"/>
<stop offset="0.07" stop-color="white" stop-opacity="0.22"/>
<stop offset="0.16" stop-color="white" stop-opacity="0.45"/>
<stop offset="0.25" stop-color="white" stop-opacity="0.65"/>
<stop offset="0.33" stop-color="white" stop-opacity="0.8"/>
<stop offset="0.4" stop-color="white" stop-opacity="0.91"/>
<stop offset="0.46" stop-color="white" stop-opacity="0.98"/>
<stop offset="0.51" stop-color="white"/>
</linearGradient>
<linearGradient id="paint6_linear_108_1329" x1="532.972" y1="622.322" x2="543.393" y2="495.584" gradientUnits="userSpaceOnUse">
<stop stop-color="#010101" stop-opacity="0.01"/>
<stop offset="0.95" stop-color="#010101"/>
</linearGradient>
<linearGradient id="paint7_linear_108_1329" x1="131.259" y1="159.517" x2="128.544" y2="609.071" gradientUnits="userSpaceOnUse">
<stop stop-color="white" stop-opacity="0.01"/>
<stop offset="0.07" stop-color="white" stop-opacity="0.22"/>
<stop offset="0.16" stop-color="white" stop-opacity="0.45"/>
<stop offset="0.25" stop-color="white" stop-opacity="0.65"/>
<stop offset="0.33" stop-color="white" stop-opacity="0.8"/>
<stop offset="0.4" stop-color="white" stop-opacity="0.91"/>
<stop offset="0.46" stop-color="white" stop-opacity="0.98"/>
<stop offset="0.51" stop-color="white"/>
</linearGradient>
<linearGradient id="paint8_linear_108_1329" x1="-122.395" y1="597.073" x2="-122.295" y2="739.306" gradientUnits="userSpaceOnUse">
<stop stop-color="#010101" stop-opacity="0.01"/>
<stop offset="0.95" stop-color="#010101"/>
</linearGradient>
<linearGradient id="paint9_linear_108_1329" x1="1030.02" y1="342.966" x2="1064.2" y2="-64.145" gradientUnits="userSpaceOnUse">
<stop stop-color="white" stop-opacity="0.01"/>
<stop offset="0.07" stop-color="white" stop-opacity="0.22"/>
<stop offset="0.16" stop-color="white" stop-opacity="0.45"/>
<stop offset="0.25" stop-color="white" stop-opacity="0.65"/>
<stop offset="0.33" stop-color="white" stop-opacity="0.8"/>
<stop offset="0.4" stop-color="white" stop-opacity="0.91"/>
<stop offset="0.46" stop-color="white" stop-opacity="0.98"/>
<stop offset="0.51" stop-color="white"/>
</linearGradient>
<linearGradient id="paint10_linear_108_1329" x1="203.138" y1="232.87" x2="341.145" y2="601.142" gradientUnits="userSpaceOnUse">
<stop stop-color="white" stop-opacity="0.01"/>
<stop offset="0.07" stop-color="white" stop-opacity="0.22"/>
<stop offset="0.16" stop-color="white" stop-opacity="0.45"/>
<stop offset="0.25" stop-color="white" stop-opacity="0.65"/>
<stop offset="0.33" stop-color="white" stop-opacity="0.8"/>
<stop offset="0.4" stop-color="white" stop-opacity="0.91"/>
<stop offset="0.46" stop-color="white" stop-opacity="0.98"/>
<stop offset="0.51" stop-color="white"/>
</linearGradient>
<linearGradient id="paint11_linear_108_1329" x1="306.668" y1="255.99" x2="303.343" y2="538.698" gradientUnits="userSpaceOnUse">
<stop stop-color="white" stop-opacity="0.01"/>
<stop offset="0.07" stop-color="white" stop-opacity="0.22"/>
<stop offset="0.16" stop-color="white" stop-opacity="0.45"/>
<stop offset="0.25" stop-color="white" stop-opacity="0.65"/>
<stop offset="0.33" stop-color="white" stop-opacity="0.8"/>
<stop offset="0.4" stop-color="white" stop-opacity="0.91"/>
<stop offset="0.46" stop-color="white" stop-opacity="0.98"/>
<stop offset="0.51" stop-color="white"/>
</linearGradient>
<linearGradient id="paint12_linear_108_1329" x1="622.503" y1="447.704" x2="641.69" y2="-130.215" gradientUnits="userSpaceOnUse">
<stop stop-color="#010101" stop-opacity="0.01"/>
<stop offset="0.95" stop-color="#010101"/>
</linearGradient>
<linearGradient id="paint13_linear_108_1329" x1="621.651" y1="448.045" x2="640.838" y2="-129.875" gradientUnits="userSpaceOnUse">
<stop stop-color="#010101" stop-opacity="0.01"/>
<stop offset="0.95" stop-color="#010101"/>
</linearGradient>
<linearGradient id="paint14_linear_108_1329" x1="527.472" y1="445.354" x2="546.688" y2="-132.565" gradientUnits="userSpaceOnUse">
<stop stop-color="#010101" stop-opacity="0.01"/>
<stop offset="0.95" stop-color="#010101"/>
</linearGradient>
<linearGradient id="paint15_linear_108_1329" x1="526.62" y1="445.694" x2="545.836" y2="-132.224" gradientUnits="userSpaceOnUse">
<stop stop-color="#010101" stop-opacity="0.01"/>
<stop offset="0.95" stop-color="#010101"/>
</linearGradient>
<linearGradient id="paint16_linear_108_1329" x1="620.712" y1="449.545" x2="639.928" y2="-128.373" gradientUnits="userSpaceOnUse">
<stop stop-color="#010101" stop-opacity="0.01"/>
<stop offset="0.95" stop-color="#010101"/>
</linearGradient>
<linearGradient id="paint17_linear_108_1329" x1="526.682" y1="447.236" x2="545.87" y2="-130.683" gradientUnits="userSpaceOnUse">
<stop stop-color="#010101" stop-opacity="0.01"/>
<stop offset="0.95" stop-color="#010101"/>
</linearGradient>
<linearGradient id="paint18_linear_108_1329" x1="574.672" y1="448.396" x2="593.888" y2="-129.501" gradientUnits="userSpaceOnUse">
<stop stop-color="#010101" stop-opacity="0.01"/>
<stop offset="0.95" stop-color="#010101"/>
</linearGradient>
<linearGradient id="paint19_linear_108_1329" x1="576.488" y1="445.843" x2="595.704" y2="-132.075" gradientUnits="userSpaceOnUse">
<stop stop-color="#010101" stop-opacity="0.01"/>
<stop offset="0.95" stop-color="#010101"/>
</linearGradient>
<linearGradient id="paint20_linear_108_1329" x1="231.41" y1="460.399" x2="463.643" y2="677.094" gradientUnits="userSpaceOnUse">
<stop stop-color="white" stop-opacity="0.01"/>
<stop offset="0.07" stop-color="white" stop-opacity="0.22"/>
<stop offset="0.16" stop-color="white" stop-opacity="0.45"/>
<stop offset="0.25" stop-color="white" stop-opacity="0.65"/>
<stop offset="0.33" stop-color="white" stop-opacity="0.8"/>
<stop offset="0.4" stop-color="white" stop-opacity="0.91"/>
<stop offset="0.46" stop-color="white" stop-opacity="0.98"/>
<stop offset="0.51" stop-color="white"/>
</linearGradient>
<linearGradient id="paint21_linear_108_1329" x1="580.277" y1="240.864" x2="578.492" y2="376.026" gradientUnits="userSpaceOnUse">
<stop stop-color="white" stop-opacity="0.01"/>
<stop offset="0.07" stop-color="white" stop-opacity="0.22"/>
<stop offset="0.16" stop-color="white" stop-opacity="0.45"/>
<stop offset="0.25" stop-color="white" stop-opacity="0.65"/>
<stop offset="0.33" stop-color="white" stop-opacity="0.8"/>
<stop offset="0.4" stop-color="white" stop-opacity="0.91"/>
<stop offset="0.46" stop-color="white" stop-opacity="0.98"/>
<stop offset="0.51" stop-color="white"/>
</linearGradient>
<linearGradient id="paint22_linear_108_1329" x1="580.277" y1="350.864" x2="578.492" y2="486.026" gradientUnits="userSpaceOnUse">
<stop stop-color="white" stop-opacity="0.01"/>
<stop offset="0.07" stop-color="white" stop-opacity="0.22"/>
<stop offset="0.16" stop-color="white" stop-opacity="0.45"/>
<stop offset="0.25" stop-color="white" stop-opacity="0.65"/>
<stop offset="0.33" stop-color="white" stop-opacity="0.8"/>
<stop offset="0.4" stop-color="white" stop-opacity="0.91"/>
<stop offset="0.46" stop-color="white" stop-opacity="0.98"/>
<stop offset="0.51" stop-color="white"/>
</linearGradient>
<linearGradient id="paint23_linear_108_1329" x1="216.437" y1="276.281" x2="216.42" y2="294.481" gradientUnits="userSpaceOnUse">
<stop stop-color="white" stop-opacity="0.01"/>
<stop offset="0.07" stop-color="white" stop-opacity="0.22"/>
<stop offset="0.16" stop-color="white" stop-opacity="0.45"/>
<stop offset="0.25" stop-color="white" stop-opacity="0.65"/>
<stop offset="0.33" stop-color="white" stop-opacity="0.8"/>
<stop offset="0.4" stop-color="white" stop-opacity="0.91"/>
<stop offset="0.46" stop-color="white" stop-opacity="0.98"/>
<stop offset="0.51" stop-color="white"/>
</linearGradient>
<linearGradient id="paint24_linear_108_1329" x1="135.737" y1="329.052" x2="249.168" y2="239.635" gradientUnits="userSpaceOnUse">
<stop stop-color="#010101" stop-opacity="0.01"/>
<stop offset="0.95" stop-color="#010101"/>
</linearGradient>
<linearGradient id="paint25_linear_108_1329" x1="185.575" y1="348.988" x2="346.852" y2="223.867" gradientUnits="userSpaceOnUse">
<stop stop-color="#010101" stop-opacity="0.01"/>
<stop offset="0.95" stop-color="#010101"/>
</linearGradient>
<linearGradient id="paint26_linear_108_1329" x1="290.519" y1="407.751" x2="546.684" y2="185.028" gradientUnits="userSpaceOnUse">
<stop stop-color="#010101" stop-opacity="0.01"/>
<stop offset="0.95" stop-color="#010101"/>
</linearGradient>
<linearGradient id="paint27_linear_108_1329" x1="399.279" y1="476.865" x2="774.962" y2="158.45" gradientUnits="userSpaceOnUse">
<stop stop-color="#010101" stop-opacity="0.01"/>
<stop offset="0.36" stop-color="#010101" stop-opacity="0.36"/>
<stop offset="0.95" stop-color="#010101"/>
</linearGradient>
<linearGradient id="paint28_linear_108_1329" x1="247.537" y1="239.751" x2="430.477" y2="108.322" gradientUnits="userSpaceOnUse">
<stop stop-color="white" stop-opacity="0.01"/>
<stop offset="0.07" stop-color="white" stop-opacity="0.22"/>
<stop offset="0.16" stop-color="white" stop-opacity="0.45"/>
<stop offset="0.25" stop-color="white" stop-opacity="0.65"/>
<stop offset="0.33" stop-color="white" stop-opacity="0.8"/>
<stop offset="0.4" stop-color="white" stop-opacity="0.91"/>
<stop offset="0.46" stop-color="white" stop-opacity="0.98"/>
<stop offset="0.51" stop-color="white"/>
</linearGradient>
<linearGradient id="paint29_linear_108_1329" x1="261.151" y1="237.517" x2="377.009" y2="141.658" gradientUnits="userSpaceOnUse">
<stop stop-color="white" stop-opacity="0.01"/>
<stop offset="0.07" stop-color="white" stop-opacity="0.22"/>
<stop offset="0.16" stop-color="white" stop-opacity="0.45"/>
<stop offset="0.25" stop-color="white" stop-opacity="0.65"/>
<stop offset="0.33" stop-color="white" stop-opacity="0.8"/>
<stop offset="0.4" stop-color="white" stop-opacity="0.91"/>
<stop offset="0.46" stop-color="white" stop-opacity="0.98"/>
<stop offset="0.51" stop-color="white"/>
</linearGradient>
<linearGradient id="paint30_linear_108_1329" x1="126.738" y1="403.745" x2="164.923" y2="403.767" gradientUnits="userSpaceOnUse">
<stop stop-color="white" stop-opacity="0.01"/>
<stop offset="0.07" stop-color="white" stop-opacity="0.22"/>
<stop offset="0.16" stop-color="white" stop-opacity="0.45"/>
<stop offset="0.25" stop-color="white" stop-opacity="0.65"/>
<stop offset="0.33" stop-color="white" stop-opacity="0.8"/>
<stop offset="0.4" stop-color="white" stop-opacity="0.91"/>
<stop offset="0.46" stop-color="white" stop-opacity="0.98"/>
<stop offset="0.51" stop-color="white"/>
</linearGradient>
<linearGradient id="paint31_linear_108_1329" x1="53.4458" y1="306.2" x2="65.0971" y2="344.932" gradientUnits="userSpaceOnUse">
<stop stop-color="#010101" stop-opacity="0.01"/>
<stop offset="0.95" stop-color="#010101"/>
</linearGradient>
<linearGradient id="paint32_linear_108_1329" x1="78.2439" y1="454.933" x2="179.146" y2="456.976" gradientUnits="userSpaceOnUse">
<stop stop-color="#010101" stop-opacity="0.01"/>
<stop offset="0.95" stop-color="#010101"/>
</linearGradient>
<linearGradient id="paint33_linear_108_1329" x1="481.015" y1="612.512" x2="384.922" y2="447.732" gradientUnits="userSpaceOnUse">
<stop stop-color="#010101" stop-opacity="0.01"/>
<stop offset="0.95" stop-color="#010101"/>
</linearGradient>
<linearGradient id="paint34_linear_108_1329" x1="482.037" y1="150.892" x2="309.151" y2="155.761" gradientUnits="userSpaceOnUse">
<stop stop-color="#010101" stop-opacity="0.01"/>
<stop offset="0.95" stop-color="#010101"/>
</linearGradient>
</defs>
</svg>
