<svg width="1042" height="1097" viewBox="0 0 1042 1097" fill="none" xmlns="http://www.w3.org/2000/svg">
<path opacity="0.5" d="M318.343 22.6942C198.405 123.217 179.819 313.298 98.5892 453.527C70.3124 502.322 33.7749 545.992 14.7119 600.123C-29.0536 724.026 31.1802 864.572 111.801 962.981C150.245 1009.93 195.149 1052.94 249.478 1072.72C291.258 1087.94 336.056 1088.57 380.033 1088.97L1150.5 1096.9C1236.52 1097.77 1332.1 1094.62 1393.95 1028.21C1436.57 982.478 1453.89 915.692 1468.58 851.944C1486.64 773.613 1503 688.546 1474.91 613.94C1442.82 528.582 1361.67 480.21 1311.26 406.555C1229.45 287.223 1231.33 106.731 1127.14 11.4664C1078.51 -32.9959 1014.33 -50.4321 951.792 -59.1502C833.892 -75.6089 722.215 -44.5408 606.433 -48.8734C507.464 -52.572 400.447 -46.1259 318.343 22.6942Z" fill="#E7ECFF"/>
</svg>
